<svg width="32" height="32" viewBox="0 0 32 32" fill="none" xmlns="http://www.w3.org/2000/svg">

    <g id="sidebar">
    <path fill-rule="evenodd" clip-rule="evenodd" d="M26.6066 4.51472L17.0606 14.0607C16.4748 14.6464 15.5251 14.6464 14.9393 14.0607L5.39335 4.51472C4.80757 3.92893 4.80757 2.97918 5.39335 2.3934C5.97914 1.80761 6.92889 1.80761 7.51467 2.3934L14.5 9.37868L14.5 2C14.5 1.17157 15.1715 0.499999 16 0.499999C16.8284 0.499999 17.5 1.17157 17.5 2L17.5 9.37868L24.4852 2.3934C25.071 1.80761 26.0208 1.80761 26.6066 2.3934C27.1923 2.97918 27.1923 3.92893 26.6066 4.51472Z" fill="#9854F6"/>
    <path fill-rule="evenodd" clip-rule="evenodd" d="M5.39344 27.4853L14.9394 17.9393C15.5252 17.3536 16.4749 17.3536 17.0607 17.9393L26.6066 27.4853C27.1924 28.0711 27.1924 29.0208 26.6066 29.6066C26.0209 30.1924 25.0711 30.1924 24.4853 29.6066L17.5 22.6213L17.5 30C17.5 30.8284 16.8285 31.5 16 31.5C15.1716 31.5 14.5 30.8284 14.5 30L14.5 22.6213L7.51476 29.6066C6.92898 30.1924 5.97923 30.1924 5.39344 29.6066C4.80765 29.0208 4.80765 28.0711 5.39344 27.4853Z" fill="#9854F6"/>
    <path fill-rule="evenodd" clip-rule="evenodd" d="M27.4853 26.6066L17.9393 17.0606C17.3536 16.4748 17.3536 15.5251 17.9393 14.9393L27.4853 5.39335C28.0711 4.80757 29.0208 4.80757 29.6066 5.39335C30.1924 5.97914 30.1924 6.92889 29.6066 7.51467L22.6213 14.5L30 14.5C30.8284 14.5 31.5 15.1715 31.5 16C31.5 16.8284 30.8284 17.5 30 17.5L22.6213 17.5L29.6066 24.4852C30.1924 25.071 30.1924 26.0208 29.6066 26.6066C29.0208 27.1923 28.0711 27.1923 27.4853 26.6066Z" fill="#9854F6"/>
    <path fill-rule="evenodd" clip-rule="evenodd" d="M4.51472 5.39344L14.0607 14.9394C14.6464 15.5252 14.6464 16.4749 14.0607 17.0607L4.51472 26.6066C3.92893 27.1924 2.97918 27.1924 2.3934 26.6066C1.80761 26.0209 1.80761 25.0711 2.3934 24.4853L9.37868 17.5L2 17.5C1.17157 17.5 0.499999 16.8285 0.499999 16C0.499999 15.1716 1.17157 14.5 2 14.5L9.37868 14.5L2.3934 7.51476C1.80761 6.92898 1.80761 5.97923 2.3934 5.39344C2.97918 4.80765 3.92893 4.80766 4.51472 5.39344Z" fill="#9854F6"/>
    </g>
    <g id="closeButton">
        <g clip-path="url(#clip0_18005_1868)">
            <path d="M12 4L4 12" stroke="#ACADB9" stroke-width="1.5" stroke-linecap="round" stroke-linejoin="round"/>
            <path d="M4 4L12 12" stroke="#ACADB9" stroke-width="1.5" stroke-linecap="round" stroke-linejoin="round"/>
        </g>
        <defs>
            <clipPath id="clip0_18005_1868">
                <rect width="16" height="16" fill="#9854F6"/>
            </clipPath>
        </defs>
    </g>
    <g id="star">
    <path d="M12.9999 19.7084L5.79926 23.4942L7.17476 15.4757L1.34143 9.79753L9.39143 8.63086L12.9918 1.33569L16.5921 8.63086L24.6421 9.79753L18.8088 15.4757L20.1843 23.4942L12.9999 19.7084Z" fill="#FAB005" stroke="#FAB005" stroke-width="2" stroke-linecap="round" stroke-linejoin="round"/>
    </g>
    <g id="noPoster">
        <g clip-path="url(#clip0_18128_1000)">
            <path d="M31.5 8H31.51" stroke="#ACADB9" stroke-width="2" stroke-linecap="round" stroke-linejoin="round"/>
            <path d="M29.5 21H22.5C21.7044 21 20.9413 20.6839 20.3787 20.1213C19.8161 19.5587 19.5 18.7956 19.5 18V6C19.5 5.20435 19.8161 4.44129 20.3787 3.87868C20.9413 3.31607 21.7044 3 22.5 3H34.5C35.2956 3 36.0587 3.31607 36.6213 3.87868C37.1839 4.44129 37.5 5.20435 37.5 6V13" stroke="#ACADB9" stroke-width="2" stroke-linecap="round" stroke-linejoin="round"/>
            <path d="M19.5 16L24.5 11C25.428 10.107 26.572 10.107 27.5 11L30.5 14" stroke="#ACADB9" stroke-width="2" stroke-linecap="round" stroke-linejoin="round"/>
            <path d="M30.5 14L31.5 13C32.428 12.107 33.572 12.107 34.5 13" stroke="#ACADB9" stroke-width="2" stroke-linecap="round" stroke-linejoin="round"/>
            <path d="M38.5 22L33.5 17" stroke="#ACADB9" stroke-width="2" stroke-linecap="round" stroke-linejoin="round"/>
            <path d="M33.5 22L38.5 17" stroke="#ACADB9" stroke-width="2" stroke-linecap="round" stroke-linejoin="round"/>
        </g>
        <path d="M8.00284 31.2727V40H6.79261L2.35653 33.5994H2.27557V40H0.958807V31.2727H2.17756L6.6179 37.6818H6.69886V31.2727H8.00284ZM12.5785 40.1321C11.9648 40.1321 11.4293 39.9915 10.9719 39.7102C10.5146 39.429 10.1594 39.0355 9.90661 38.5298C9.65376 38.0241 9.52734 37.4332 9.52734 36.7571C9.52734 36.0781 9.65376 35.4844 9.90661 34.9759C10.1594 34.4673 10.5146 34.0724 10.9719 33.7912C11.4293 33.5099 11.9648 33.3693 12.5785 33.3693C13.1921 33.3693 13.7276 33.5099 14.185 33.7912C14.6424 34.0724 14.9975 34.4673 15.2504 34.9759C15.5032 35.4844 15.6296 36.0781 15.6296 36.7571C15.6296 37.4332 15.5032 38.0241 15.2504 38.5298C14.9975 39.0355 14.6424 39.429 14.185 39.7102C13.7276 39.9915 13.1921 40.1321 12.5785 40.1321ZM12.5827 39.0625C12.9805 39.0625 13.31 38.9574 13.5714 38.7472C13.8327 38.5369 14.0259 38.2571 14.1509 37.9077C14.2788 37.5582 14.3427 37.1733 14.3427 36.7528C14.3427 36.3352 14.2788 35.9517 14.1509 35.6023C14.0259 35.25 13.8327 34.9673 13.5714 34.7543C13.31 34.5412 12.9805 34.4347 12.5827 34.4347C12.1822 34.4347 11.8498 34.5412 11.5856 34.7543C11.3242 34.9673 11.1296 35.25 11.0018 35.6023C10.8768 35.9517 10.8143 36.3352 10.8143 36.7528C10.8143 37.1733 10.8768 37.5582 11.0018 37.9077C11.1296 38.2571 11.3242 38.5369 11.5856 38.7472C11.8498 38.9574 12.1822 39.0625 12.5827 39.0625ZM20.3299 40V31.2727H23.4407C24.1197 31.2727 24.6822 31.3963 25.1282 31.6435C25.5742 31.8906 25.908 32.2287 26.1296 32.6577C26.3512 33.0838 26.462 33.5639 26.462 34.098C26.462 34.6349 26.3498 35.1179 26.1254 35.5469C25.9038 35.973 25.5685 36.3111 25.1197 36.5611C24.6737 36.8082 24.1126 36.9318 23.4364 36.9318H21.2972V35.8153H23.3171C23.7461 35.8153 24.0941 35.7415 24.3612 35.5938C24.6282 35.4432 24.8242 35.2386 24.9492 34.9801C25.0742 34.7216 25.1367 34.4276 25.1367 34.098C25.1367 33.7685 25.0742 33.4759 24.9492 33.2202C24.8242 32.9645 24.6268 32.7642 24.3569 32.6193C24.0898 32.4744 23.7376 32.402 23.3001 32.402H21.6467V40H20.3299ZM30.5785 40.1321C29.9648 40.1321 29.4293 39.9915 28.9719 39.7102C28.5146 39.429 28.1594 39.0355 27.9066 38.5298C27.6538 38.0241 27.5273 37.4332 27.5273 36.7571C27.5273 36.0781 27.6538 35.4844 27.9066 34.9759C28.1594 34.4673 28.5146 34.0724 28.9719 33.7912C29.4293 33.5099 29.9648 33.3693 30.5785 33.3693C31.1921 33.3693 31.7276 33.5099 32.185 33.7912C32.6424 34.0724 32.9975 34.4673 33.2504 34.9759C33.5032 35.4844 33.6296 36.0781 33.6296 36.7571C33.6296 37.4332 33.5032 38.0241 33.2504 38.5298C32.9975 39.0355 32.6424 39.429 32.185 39.7102C31.7276 39.9915 31.1921 40.1321 30.5785 40.1321ZM30.5827 39.0625C30.9805 39.0625 31.31 38.9574 31.5714 38.7472C31.8327 38.5369 32.0259 38.2571 32.1509 37.9077C32.2788 37.5582 32.3427 37.1733 32.3427 36.7528C32.3427 36.3352 32.2788 35.9517 32.1509 35.6023C32.0259 35.25 31.8327 34.9673 31.5714 34.7543C31.31 34.5412 30.9805 34.4347 30.5827 34.4347C30.1822 34.4347 29.8498 34.5412 29.5856 34.7543C29.3242 34.9673 29.1296 35.25 29.0018 35.6023C28.8768 35.9517 28.8143 36.3352 28.8143 36.7528C28.8143 37.1733 28.8768 37.5582 29.0018 37.9077C29.1296 38.2571 29.3242 38.5369 29.5856 38.7472C29.8498 38.9574 30.1822 39.0625 30.5827 39.0625ZM39.9567 35.0526L38.8018 35.2571C38.7536 35.1094 38.6768 34.9687 38.5717 34.8352C38.4695 34.7017 38.3303 34.5923 38.1541 34.5071C37.978 34.4219 37.7578 34.3793 37.4936 34.3793C37.1328 34.3793 36.8317 34.4602 36.5902 34.6222C36.3487 34.7812 36.228 34.9872 36.228 35.2401C36.228 35.4588 36.3089 35.6349 36.4709 35.7685C36.6328 35.902 36.8942 36.0114 37.255 36.0966L38.2947 36.3352C38.897 36.4744 39.3459 36.6889 39.6413 36.9787C39.9368 37.2685 40.0845 37.6449 40.0845 38.108C40.0845 38.5 39.9709 38.8494 39.7436 39.1562C39.5192 39.4602 39.2053 39.6989 38.8018 39.8722C38.4013 40.0455 37.9368 40.1321 37.4084 40.1321C36.6754 40.1321 36.0774 39.9759 35.6143 39.6634C35.1513 39.348 34.8672 38.9006 34.7621 38.321L35.9936 38.1335C36.0703 38.4545 36.228 38.6974 36.4666 38.8622C36.7053 39.0241 37.0163 39.1051 37.3999 39.1051C37.8175 39.1051 38.1513 39.0185 38.4013 38.8452C38.6513 38.669 38.7763 38.4545 38.7763 38.2017C38.7763 37.9972 38.6996 37.8253 38.5462 37.6861C38.3956 37.5469 38.1641 37.4418 37.8516 37.3707L36.7436 37.1278C36.1328 36.9886 35.6811 36.767 35.3885 36.4631C35.0987 36.1591 34.9538 35.7741 34.9538 35.3082C34.9538 34.9219 35.0618 34.5838 35.2777 34.294C35.4936 34.0043 35.7919 33.7784 36.1726 33.6165C36.5533 33.4517 36.9893 33.3693 37.4808 33.3693C38.1882 33.3693 38.745 33.5227 39.1513 33.8295C39.5575 34.1335 39.826 34.5412 39.9567 35.0526ZM44.5408 33.4545V34.4773H40.9656V33.4545H44.5408ZM41.9244 31.8864H43.1985V38.0781C43.1985 38.3253 43.2354 38.5114 43.3093 38.6364C43.3832 38.7585 43.4783 38.8423 43.5948 38.8878C43.7141 38.9304 43.8434 38.9517 43.9826 38.9517C44.0849 38.9517 44.1744 38.9446 44.2511 38.9304C44.3278 38.9162 44.3874 38.9048 44.43 38.8963L44.6602 39.9489C44.5863 39.9773 44.4812 40.0057 44.3448 40.0341C44.2085 40.0653 44.038 40.0824 43.8335 40.0852C43.4982 40.0909 43.1857 40.0312 42.896 39.9062C42.6062 39.7812 42.3718 39.5881 42.1928 39.3267C42.0138 39.0653 41.9244 38.7372 41.9244 38.3423V31.8864ZM48.701 40.1321C48.0561 40.1321 47.5007 39.9943 47.0348 39.7188C46.5717 39.4403 46.2138 39.0497 45.9609 38.5469C45.7109 38.0412 45.5859 37.4489 45.5859 36.7699C45.5859 36.0994 45.7109 35.5085 45.9609 34.9972C46.2138 34.4858 46.5661 34.0866 47.0178 33.7997C47.4723 33.5128 48.0036 33.3693 48.6115 33.3693C48.9808 33.3693 49.3388 33.4304 49.6854 33.5526C50.032 33.6747 50.343 33.8665 50.6186 34.1278C50.8942 34.3892 51.1115 34.7287 51.2706 35.1463C51.4297 35.5611 51.5092 36.0653 51.5092 36.6591V37.1108H46.3061V36.1562H50.2607C50.2607 35.821 50.1925 35.5241 50.0561 35.2656C49.9197 35.0043 49.728 34.7983 49.4808 34.6477C49.2365 34.4972 48.9496 34.4219 48.62 34.4219C48.2621 34.4219 47.9496 34.5099 47.6825 34.6861C47.4183 34.8594 47.2138 35.0866 47.0689 35.3679C46.9268 35.6463 46.8558 35.9489 46.8558 36.2756V37.0213C46.8558 37.4588 46.9325 37.831 47.0859 38.1378C47.2422 38.4446 47.4595 38.679 47.7379 38.8409C48.0163 39 48.3416 39.0795 48.7138 39.0795C48.9553 39.0795 49.1754 39.0455 49.3743 38.9773C49.5732 38.9062 49.745 38.8011 49.8899 38.6619C50.0348 38.5227 50.1456 38.3509 50.2223 38.1463L51.4283 38.3636C51.3317 38.7187 51.1584 39.0298 50.9084 39.2969C50.6612 39.5611 50.3501 39.767 49.9751 39.9148C49.603 40.0597 49.1783 40.1321 48.701 40.1321ZM52.9229 40V33.4545H54.1545V34.4943H54.2227C54.342 34.142 54.5522 33.8651 54.8533 33.6634C55.1573 33.4588 55.5011 33.3565 55.8846 33.3565C55.9641 33.3565 56.0579 33.3594 56.1658 33.3651C56.2766 33.3707 56.3633 33.3778 56.4258 33.3864V34.6051C56.3746 34.5909 56.2837 34.5753 56.1531 34.5582C56.0224 34.5384 55.8917 34.5284 55.761 34.5284C55.4599 34.5284 55.1914 34.5923 54.9556 34.7202C54.7227 34.8452 54.538 35.0199 54.4016 35.2443C54.2653 35.4659 54.1971 35.7187 54.1971 36.0028V40H52.9229Z" fill="#ACADB9"/>
        <defs>
            <clipPath id="clip0_18128_1000">
                <rect width="24" height="24" fill="white" transform="translate(16.5)"/>
            </clipPath>
        </defs>
    </g>

    <g id="buttonIcon">
    <path d="M12.9999 19.7084L5.79926 23.4942L7.17476 15.4757L1.34143 9.79753L9.39143 8.63086L12.9918 1.33569L16.5921 8.63086L24.6421 9.79753L18.8088 15.4757L20.1843 23.4942L12.9999 19.7084Z" fill="#D5D6DC" stroke="#D5D6DC" stroke-width="2" stroke-linecap="round" stroke-linejoin="round"/>
    </g>
    <g id="buttonIconActive">
    <path d="M13 19.7084L5.79929 23.4942L7.17479 15.4757L1.34146 9.79753L9.39146 8.63086L12.9918 1.33569L16.5921 8.63086L24.6421 9.79753L18.8088 15.4757L20.1843 23.4942L13 19.7084Z" fill="#9854F6" stroke="#9854F6" stroke-width="2" stroke-linecap="round" stroke-linejoin="round"/>
    </g>
</svg>