<svg width="32" height="32" viewBox="0 0 32 32" fill="none" xmlns="http://www.w3.org/2000/svg">

    <g id="sidebar">
    <path fill-rule="evenodd" clip-rule="evenodd" d="M26.6066 4.51472L17.0606 14.0607C16.4748 14.6464 15.5251 14.6464 14.9393 14.0607L5.39335 4.51472C4.80757 3.92893 4.80757 2.97918 5.39335 2.3934C5.97914 1.80761 6.92889 1.80761 7.51467 2.3934L14.5 9.37868L14.5 2C14.5 1.17157 15.1715 0.499999 16 0.499999C16.8284 0.499999 17.5 1.17157 17.5 2L17.5 9.37868L24.4852 2.3934C25.071 1.80761 26.0208 1.80761 26.6066 2.3934C27.1923 2.97918 27.1923 3.92893 26.6066 4.51472Z" fill="#9854F6"/>
    <path fill-rule="evenodd" clip-rule="evenodd" d="M5.39344 27.4853L14.9394 17.9393C15.5252 17.3536 16.4749 17.3536 17.0607 17.9393L26.6066 27.4853C27.1924 28.0711 27.1924 29.0208 26.6066 29.6066C26.0209 30.1924 25.0711 30.1924 24.4853 29.6066L17.5 22.6213L17.5 30C17.5 30.8284 16.8285 31.5 16 31.5C15.1716 31.5 14.5 30.8284 14.5 30L14.5 22.6213L7.51476 29.6066C6.92898 30.1924 5.97923 30.1924 5.39344 29.6066C4.80765 29.0208 4.80765 28.0711 5.39344 27.4853Z" fill="#9854F6"/>
    <path fill-rule="evenodd" clip-rule="evenodd" d="M27.4853 26.6066L17.9393 17.0606C17.3536 16.4748 17.3536 15.5251 17.9393 14.9393L27.4853 5.39335C28.0711 4.80757 29.0208 4.80757 29.6066 5.39335C30.1924 5.97914 30.1924 6.92889 29.6066 7.51467L22.6213 14.5L30 14.5C30.8284 14.5 31.5 15.1715 31.5 16C31.5 16.8284 30.8284 17.5 30 17.5L22.6213 17.5L29.6066 24.4852C30.1924 25.071 30.1924 26.0208 29.6066 26.6066C29.0208 27.1923 28.0711 27.1923 27.4853 26.6066Z" fill="#9854F6"/>
    <path fill-rule="evenodd" clip-rule="evenodd" d="M4.51472 5.39344L14.0607 14.9394C14.6464 15.5252 14.6464 16.4749 14.0607 17.0607L4.51472 26.6066C3.92893 27.1924 2.97918 27.1924 2.3934 26.6066C1.80761 26.0209 1.80761 25.0711 2.3934 24.4853L9.37868 17.5L2 17.5C1.17157 17.5 0.499999 16.8285 0.499999 16C0.499999 15.1716 1.17157 14.5 2 14.5L9.37868 14.5L2.3934 7.51476C1.80761 6.92898 1.80761 5.97923 2.3934 5.39344C2.97918 4.80765 3.92893 4.80766 4.51472 5.39344Z" fill="#9854F6"/>
    </g>
    <g id="closeButton">
        <g clip-path="url(#clip0_18005_1868)">
            <path d="M12 4L4 12" stroke="#ACADB9" stroke-width="1.5" stroke-linecap="round" stroke-linejoin="round"/>
            <path d="M4 4L12 12" stroke="#ACADB9" stroke-width="1.5" stroke-linecap="round" stroke-linejoin="round"/>
        </g>
        <defs>
            <clipPath id="clip0_18005_1868">
                <rect width="16" height="16" fill="#9854F6"/>
            </clipPath>
        </defs>
    </g>
    <g id="star">
    <path d="M12.9999 19.7084L5.79926 23.4942L7.17476 15.4757L1.34143 9.79753L9.39143 8.63086L12.9918 1.33569L16.5921 8.63086L24.6421 9.79753L18.8088 15.4757L20.1843 23.4942L12.9999 19.7084Z" fill="#FAB005" stroke="#FAB005" stroke-width="2" stroke-linecap="round" stroke-linejoin="round"/>
    </g>
    <g id="noPoster">
        <g clip-path="url(#clip0_18128_1000)">
            <path d="M31.5 8H31.51" stroke="#ACADB9" stroke-width="2" stroke-linecap="round" stroke-linejoin="round"/>
            <path d="M29.5 21H22.5C21.7044 21 20.9413 20.6839 20.3787 20.1213C19.8161 19.5587 19.5 18.7956 19.5 18V6C19.5 5.20435 19.8161 4.44129 20.3787 3.87868C20.9413 3.31607 21.7044 3 22.5 3H34.5C35.2956 3 36.0587 3.31607 36.6213 3.87868C37.1839 4.44129 37.5 5.20435 37.5 6V13" stroke="#ACADB9" stroke-width="2" stroke-linecap="round" stroke-linejoin="round"/>
            <path d="M19.5 16L24.5 11C25.428 10.107 26.572 10.107 27.5 11L30.5 14" stroke="#ACADB9" stroke-width="2" stroke-linecap="round" stroke-linejoin="round"/>
            <path d="M30.5 14L31.5 13C32.428 12.107 33.572 12.107 34.5 13" stroke="#ACADB9" stroke-width="2" stroke-linecap="round" stroke-linejoin="round"/>
            <path d="M38.5 22L33.5 17" stroke="#ACADB9" stroke-width="2" stroke-linecap="round" stroke-linejoin="round"/>
            <path d="M33.5 22L38.5 17" stroke="#ACADB9" stroke-width="2" stroke-linecap="round" stroke-linejoin="round"/>
        </g>
        <path d="M8.00284 31.2727V40H6.79261L2.35653 33.5994H2.27557V40H0.958807V31.2727H2.17756L6.6179 37.6818H6.69886V31.2727H8.00284ZM12.5785 40.1321C11.9648 40.1321 11.4293 39.9915 10.9719 39.7102C10.5146 39.429 10.1594 39.0355 9.90661 38.5298C9.65376 38.0241 9.52734 37.4332 9.52734 36.7571C9.52734 36.0781 9.65376 35.4844 9.90661 34.9759C10.1594 34.4673 10.5146 34.0724 10.9719 33.7912C11.4293 33.5099 11.9648 33.3693 12.5785 33.3693C13.1921 33.3693 13.7276 33.5099 14.185 33.7912C14.6424 34.0724 14.9975 34.4673 15.2504 34.9759C15.5032 35.4844 15.6296 36.0781 15.6296 36.7571C15.6296 37.4332 15.5032 38.0241 15.2504 38.5298C14.9975 39.0355 14.6424 39.429 14.185 39.7102C13.7276 39.9915 13.1921 40.1321 12.5785 40.1321ZM12.5827 39.0625C12.9805 39.0625 13.31 38.9574 13.5714 38.7472C13.8327 38.5369 14.0259 38.2571 14.1509 37.9077C14.2788 37.5582 14.3427 37.1733 14.3427 36.7528C14.3427 36.3352 14.2788 35.9517 14.1509 35.6023C14.0259 35.25 13.8327 34.9673 13.5714 34.7543C13.31 34.5412 12.9805 34.4347 12.5827 34.4347C12.1822 34.4347 11.8498 34.5412 11.5856 34.7543C11.3242 34.9673 11.1296 35.25 11.0018 35.6023C10.8768 35.9517 10.8143 36.3352 10.8143 36.7528C10.8143 37.1733 10.8768 37.5582 11.0018 37.9077C11.1296 38.2571 11.3242 38.5369 11.5856 38.7472C11.8498 38.9574 12.1822 39.0625 12.5827 39.0625ZM20.3299 40V31.2727H23.4407C24.1197 31.2727 24.6822 31.3963 25.1282 31.6435C25.5742 31.8906 25.908 32.2287 26.1296 32.6577C26.3512 33.0838 26.462 33.5639 26.462 34.098C26.462 34.6349 26.3498 35.1179 26.1254 35.5469C25.9038 35.973 25.5685 36.3111 25.1197 36.5611C24.6737 36.8082 24.1126 36.9318 23.4364 36.9318H21.2972V35.8153H23.3171C23.7461 35.8153 24.0941 35.7415 24.3612 35.5938C24.6282 35.4432 24.8242 35.2386 24.9492 34.9801C25.0742 34.7216 25.1367 34.4276 25.1367 34.098C25.1367 33.7685 25.0742 33.4759 24.9492 33.2202C24.8242 32.9645 24.6268 32.7642 24.3569 32.6193C24.0898 32.4744 23.7376 32.402 23.3001 32.402H21.6467V40H20.3299ZM30.5785 40.1321C29.9648 40.1321 29.4293 39.9915 28.9719 39.7102C28.5146 39.429 28.1594 39.0355 27.9066 38.5298C27.6538 38.0241 27.5273 37.4332 27.5273 36.7571C27.5273 36.0781 27.6538 35.4844 27.9066 34.9759C28.1594 34.4673 28.5146 34.0724 28.9719 33.7912C29.4293 33.5099 29.9648 33.3693 30.5785 33.3693C31.1921 33.3693 31.7276 33.5099 32.185 33.7912C32.6424 34.0724 32.9975 34.4673 33.2504 34.9759C33.5032 35.4844 33.6296 36.0781 33.6296 36.7571C33.6296 37.4332 33.5032 38.0241 33.2504 38.5298C32.9975 39.0355 32.6424 39.429 32.185 39.7102C31.7276 39.9915 31.1921 40.1321 30.5785 40.1321ZM30.5827 39.0625C30.9805 39.0625 31.31 38.9574 31.5714 38.7472C31.8327 38.5369 32.0259 38.2571 32.1509 37.9077C32.2788 37.5582 32.3427 37.1733 32.3427 36.7528C32.3427 36.3352 32.2788 35.9517 32.1509 35.6023C32.0259 35.25 31.8327 34.9673 31.5714 34.7543C31.31 34.5412 30.9805 34.4347 30.5827 34.4347C30.1822 34.4347 29.8498 34.5412 29.5856 34.7543C29.3242 34.9673 29.1296 35.25 29.0018 35.6023C28.8768 35.9517 28.8143 36.3352 28.8143 36.7528C28.8143 37.1733 28.8768 37.5582 29.0018 37.9077C29.1296 38.2571 29.3242 38.5369 29.5856 38.7472C29.8498 38.9574 30.1822 39.0625 30.5827 39.0625ZM39.9567 35.0526L38.8018 35.2571C38.7536 35.1094 38.6768 34.9687 38.5717 34.8352C38.4695 34.7017 38.3303 34.5923 38.1541 34.5071C37.978 34.4219 37.7578 34.3793 37.4936 34.3793C37.1328 34.3793 36.8317 34.4602 36.5902 34.6222C36.3487 34.7812 36.228 34.9872 36.228 35.2401C36.228 35.4588 36.3089 35.6349 36.4709 35.7685C36.6328 35.902 36.8942 36.0114 37.255 36.0966L38.2947 36.3352C38.897 36.4744 39.3459 36.6889 39.6413 36.9787C39.9368 37.2685 40.0845 37.6449 40.0845 38.108C40.0845 38.5 39.9709 38.8494 39.7436 39.1562C39.5192 39.4602 39.2053 39.6989 38.8018 39.8722C38.4013 40.0455 37.9368 40.1321 37.4084 40.1321C36.6754 40.1321 36.0774 39.9759 35.6143 39.6634C35.1513 39.348 34.8672 38.9006 34.7621 38.321L35.9936 38.1335C36.0703 38.4545 36.228 38.6974 36.4666 38.8622C36.7053 39.0241 37.0163 39.1051 37.3999 39.1051C37.8175 39.1051 38.1513 39.0185 38.4013 38.8452C38.6513 38.669 38.7763 38.4545 38.7763 38.2017C38.7763 37.9972 38.6996 37.8253 38.5462 37.6861C38.3956 37.5469 38.1641 37.4418 37.8516 37.3707L36.7436 37.1278C36.1328 36.9886 35.6811 36.767 35.3885 36.4631C35.0987 36.1591 34.9538 35.7741 34.9538 35.3082C34.9538 34.9219 35.0618 34.5838 35.2777 34.294C35.4936 34.0043 35.7919 33.7784 36.1726 33.6165C36.5533 33.4517 36.9893 33.3693 37.4808 33.3693C38.1882 33.3693 38.745 33.5227 39.1513 33.8295C39.5575 34.1335 39.826 34.5412 39.9567 35.0526ZM44.5408 33.4545V34.4773H40.9656V33.4545H44.5408ZM41.9244 31.8864H43.1985V38.0781C43.1985 38.3253 43.2354 38.5114 43.3093 38.6364C43.3832 38.7585 43.4783 38.8423 43.5948 38.8878C43.7141 38.9304 43.8434 38.9517 43.9826 38.9517C44.0849 38.9517 44.1744 38.9446 44.2511 38.9304C44.3278 38.9162 44.3874 38.9048 44.43 38.8963L44.6602 39.9489C44.5863 39.9773 44.4812 40.0057 44.3448 40.0341C44.2085 40.0653 44.038 40.0824 43.8335 40.0852C43.4982 40.0909 43.1857 40.0312 42.896 39.9062C42.6062 39.7812 42.3718 39.5881 42.1928 39.3267C42.0138 39.0653 41.9244 38.7372 41.9244 38.3423V31.8864ZM48.701 40.1321C48.0561 40.1321 47.5007 39.9943 47.0348 39.7188C46.5717 39.4403 46.2138 39.0497 45.9609 38.5469C45.7109 38.0412 45.5859 37.4489 45.5859 36.7699C45.5859 36.0994 45.7109 35.5085 45.9609 34.9972C46.2138 34.4858 46.5661 34.0866 47.0178 33.7997C47.4723 33.5128 48.0036 33.3693 48.6115 33.3693C48.9808 33.3693 49.3388 33.4304 49.6854 33.5526C50.032 33.6747 50.343 33.8665 50.6186 34.1278C50.8942 34.3892 51.1115 34.7287 51.2706 35.1463C51.4297 35.5611 51.5092 36.0653 51.5092 36.6591V37.1108H46.3061V36.1562H50.2607C50.2607 35.821 50.1925 35.5241 50.0561 35.2656C49.9197 35.0043 49.728 34.7983 49.4808 34.6477C49.2365 34.4972 48.9496 34.4219 48.62 34.4219C48.2621 34.4219 47.9496 34.5099 47.6825 34.6861C47.4183 34.8594 47.2138 35.0866 47.0689 35.3679C46.9268 35.6463 46.8558 35.9489 46.8558 36.2756V37.0213C46.8558 37.4588 46.9325 37.831 47.0859 38.1378C47.2422 38.4446 47.4595 38.679 47.7379 38.8409C48.0163 39 48.3416 39.0795 48.7138 39.0795C48.9553 39.0795 49.1754 39.0455 49.3743 38.9773C49.5732 38.9062 49.745 38.8011 49.8899 38.6619C50.0348 38.5227 50.1456 38.3509 50.2223 38.1463L51.4283 38.3636C51.3317 38.7187 51.1584 39.0298 50.9084 39.2969C50.6612 39.5611 50.3501 39.767 49.9751 39.9148C49.603 40.0597 49.1783 40.1321 48.701 40.1321ZM52.9229 40V33.4545H54.1545V34.4943H54.2227C54.342 34.142 54.5522 33.8651 54.8533 33.6634C55.1573 33.4588 55.5011 33.3565 55.8846 33.3565C55.9641 33.3565 56.0579 33.3594 56.1658 33.3651C56.2766 33.3707 56.3633 33.3778 56.4258 33.3864V34.6051C56.3746 34.5909 56.2837 34.5753 56.1531 34.5582C56.0224 34.5384 55.8917 34.5284 55.761 34.5284C55.4599 34.5284 55.1914 34.5923 54.9556 34.7202C54.7227 34.8452 54.538 35.0199 54.4016 35.2443C54.2653 35.4659 54.1971 35.7187 54.1971 36.0028V40H52.9229Z" fill="#ACADB9"/>
        <defs>
            <clipPath id="clip0_18128_1000">
                <rect width="24" height="24" fill="white" transform="translate(16.5)"/>
            </clipPath>
        </defs>
    </g>
    <g id="buttonIcon">
    <path d="M12.9999 19.7084L5.79926 23.4942L7.17476 15.4757L1.34143 9.79753L9.39143 8.63086L12.9918 1.33569L16.5921 8.63086L24.6421 9.79753L18.8088 15.4757L20.1843 23.4942L12.9999 19.7084Z" fill="#D5D6DC" stroke="#D5D6DC" stroke-width="2" stroke-linecap="round" stroke-linejoin="round"/>
    </g>
    <g id="buttonIconActive">
    <path d="M13 19.7084L5.79929 23.4942L7.17479 15.4757L1.34146 9.79753L9.39146 8.63086L12.9918 1.33569L16.5921 8.63086L24.6421 9.79753L18.8088 15.4757L20.1843 23.4942L13 19.7084Z" fill="#9854F6" stroke="#9854F6" stroke-width="2" stroke-linecap="round" stroke-linejoin="round"/>
    </g>
    <g id="noMovie">
        <mask id="mask0_18128_818" style="mask-type:alpha" maskUnits="userSpaceOnUse" x="0" y="0" width="311" height="253">
            <path d="M186.052 23.1597C249.566 61.0657 287.69 67.7927 304.456 118.262C321.221 168.731 305.372 231.544 245.348 247.019C185.323 262.493 183.694 236.837 93.1009 240.92C2.50686 245.003 -29.6811 113.229 31.2309 53.0927C92.1429 -7.04434 122.538 -14.7453 186.052 23.1597Z" fill="white"/>
        </mask>
        <g mask="url(#mask0_18128_818)">
            <path d="M136.116 210.238C182.898 210.238 220.823 172.314 220.823 125.531C220.823 78.7487 182.898 40.8247 136.116 40.8247C89.3338 40.8247 51.4098 78.7487 51.4098 125.531C51.4098 172.314 89.3338 210.238 136.116 210.238Z" fill="black"/>
            <path d="M82.1758 130.36C82.441 130.36 82.6954 130.254 82.8829 130.067C83.0705 129.879 83.1758 129.625 83.1758 129.36C83.1758 129.094 83.0705 128.84 82.8829 128.653C82.6954 128.465 82.441 128.36 82.1758 128.36C81.9106 128.36 81.6563 128.465 81.4687 128.653C81.2812 128.84 81.1758 129.094 81.1758 129.36C81.1758 129.625 81.2812 129.879 81.4687 130.067C81.6563 130.254 81.9106 130.36 82.1758 130.36ZM83.2758 152.14C83.541 152.14 83.7954 152.034 83.9829 151.847C84.1705 151.659 84.2758 151.405 84.2758 151.14C84.2758 150.874 84.1705 150.62 83.9829 150.433C83.7954 150.245 83.541 150.14 83.2758 150.14C83.0106 150.14 82.7562 150.245 82.5687 150.433C82.3812 150.62 82.2758 150.874 82.2758 151.14C82.2758 151.405 82.3812 151.659 82.5687 151.847C82.7562 152.034 83.0106 152.14 83.2758 152.14ZM121.116 125.401C121.408 125.401 121.688 125.284 121.894 125.078C122.1 124.871 122.216 124.592 122.216 124.3C122.216 124.008 122.1 123.728 121.893 123.522C121.687 123.315 121.407 123.2 121.115 123.2C120.823 123.2 120.543 123.316 120.337 123.522C120.131 123.729 120.015 124.009 120.015 124.301C120.015 124.593 120.131 124.872 120.338 125.079C120.544 125.285 120.824 125.401 121.116 125.401ZM202.736 134.761C203.001 134.761 203.255 134.655 203.443 134.468C203.63 134.28 203.736 134.026 203.736 133.761C203.736 133.495 203.63 133.241 203.443 133.054C203.255 132.866 203.001 132.761 202.736 132.761C202.471 132.761 202.216 132.866 202.029 133.054C201.841 133.241 201.736 133.495 201.736 133.761C201.736 134.026 201.841 134.28 202.029 134.468C202.216 134.655 202.471 134.761 202.736 134.761ZM197.016 142.241C197.281 142.241 197.535 142.135 197.723 141.948C197.91 141.76 198.016 141.506 198.016 141.241C198.016 140.975 197.91 140.721 197.723 140.534C197.535 140.346 197.281 140.241 197.016 140.241C196.751 140.241 196.496 140.346 196.309 140.534C196.121 140.721 196.016 140.975 196.016 141.241C196.016 141.506 196.121 141.76 196.309 141.948C196.496 142.135 196.751 142.241 197.016 142.241ZM75.5758 151.04C75.841 151.04 76.0954 150.934 76.2829 150.747C76.4705 150.559 76.5758 150.305 76.5758 150.04C76.5758 149.774 76.4705 149.52 76.2829 149.333C76.0954 149.145 75.841 149.04 75.5758 149.04C75.3106 149.04 75.0562 149.145 74.8687 149.333C74.6812 149.52 74.5758 149.774 74.5758 150.04C74.5758 150.305 74.6812 150.559 74.8687 150.747C75.0562 150.934 75.3106 151.04 75.5758 151.04ZM110.336 104.84C110.601 104.84 110.855 104.734 111.043 104.547C111.23 104.359 111.336 104.105 111.336 103.84C111.336 103.574 111.23 103.32 111.043 103.133C110.855 102.945 110.601 102.84 110.336 102.84C110.071 102.84 109.816 102.945 109.629 103.133C109.441 103.32 109.336 103.574 109.336 103.84C109.336 104.105 109.441 104.359 109.629 104.547C109.816 104.734 110.071 104.84 110.336 104.84ZM76.0158 115.84C76.281 115.84 76.5354 115.734 76.7229 115.547C76.9105 115.359 77.0158 115.105 77.0158 114.84C77.0158 114.574 76.9105 114.32 76.7229 114.133C76.5354 113.945 76.281 113.84 76.0158 113.84C75.7506 113.84 75.4963 113.945 75.3087 114.133C75.1212 114.32 75.0158 114.574 75.0158 114.84C75.0158 115.105 75.1212 115.359 75.3087 115.547C75.4963 115.734 75.7506 115.84 76.0158 115.84ZM110.996 112.98C111.261 112.98 111.515 112.874 111.703 112.687C111.89 112.499 111.996 112.245 111.996 111.98C111.996 111.714 111.89 111.46 111.703 111.273C111.515 111.085 111.261 110.98 110.996 110.98C110.731 110.98 110.476 111.085 110.289 111.273C110.101 111.46 109.996 111.714 109.996 111.98C109.996 112.245 110.101 112.499 110.289 112.687C110.476 112.874 110.731 112.98 110.996 112.98ZM99.9958 129.261C100.261 129.261 100.515 129.155 100.703 128.968C100.89 128.78 100.996 128.526 100.996 128.261C100.996 127.995 100.89 127.741 100.703 127.554C100.515 127.366 100.261 127.261 99.9958 127.261C99.7306 127.261 99.4762 127.366 99.2887 127.554C99.1012 127.741 98.9958 127.995 98.9958 128.261C98.9958 128.526 99.1012 128.78 99.2887 128.968C99.4762 129.155 99.7306 129.261 99.9958 129.261ZM134.096 129.48C134.361 129.48 134.615 129.374 134.803 129.187C134.99 128.999 135.096 128.745 135.096 128.48C135.096 128.214 134.99 127.96 134.803 127.773C134.615 127.585 134.361 127.48 134.096 127.48C133.831 127.48 133.576 127.585 133.389 127.773C133.201 127.96 133.096 128.214 133.096 128.48C133.096 128.745 133.201 128.999 133.389 129.187C133.576 129.374 133.831 129.48 134.096 129.48ZM126.396 79.6397C126.688 79.6397 126.967 79.5238 127.174 79.3175C127.38 79.1112 127.496 78.8314 127.496 78.5397C127.496 78.2479 127.38 77.9681 127.174 77.7618C126.967 77.5556 126.688 77.4397 126.396 77.4397C126.104 77.4397 125.824 77.5556 125.618 77.7618C125.412 77.9681 125.296 78.2479 125.296 78.5397C125.296 78.8314 125.412 79.1112 125.618 79.3175C125.824 79.5238 126.104 79.6397 126.396 79.6397ZM118.916 96.7997C119.208 96.7997 119.487 96.6838 119.694 96.4775C119.9 96.2712 120.016 95.9914 120.016 95.6997C120.016 95.4079 119.9 95.1281 119.694 94.9218C119.487 94.7155 119.208 94.5997 118.916 94.5997C118.624 94.5997 118.344 94.7155 118.138 94.9218C117.932 95.1281 117.816 95.4079 117.816 95.6997C117.816 95.9914 117.932 96.2712 118.138 96.4775C118.344 96.6838 118.624 96.7997 118.916 96.7997ZM156.316 85.7997C156.608 85.7997 156.887 85.6838 157.094 85.4775C157.3 85.2712 157.416 84.9914 157.416 84.6997C157.416 84.4079 157.3 84.1281 157.094 83.9218C156.887 83.7155 156.608 83.5997 156.316 83.5997C156.024 83.5997 155.744 83.7155 155.538 83.9218C155.332 84.1281 155.216 84.4079 155.216 84.6997C155.216 84.9914 155.332 85.2712 155.538 85.4775C155.744 85.6838 156.024 85.7997 156.316 85.7997ZM110.776 95.1607C111.041 95.1607 111.295 95.0553 111.483 94.8678C111.67 94.6802 111.776 94.4259 111.776 94.1607C111.776 93.8954 111.67 93.6411 111.483 93.4536C111.295 93.266 111.041 93.1607 110.776 93.1607C110.511 93.1607 110.256 93.266 110.069 93.4536C109.881 93.6411 109.776 93.8954 109.776 94.1607C109.776 94.4259 109.881 94.6802 110.069 94.8678C110.256 95.0553 110.511 95.1607 110.776 95.1607ZM145.536 65.2407C145.801 65.2407 146.055 65.1353 146.243 64.9478C146.43 64.7602 146.536 64.5059 146.536 64.2407C146.536 63.9754 146.43 63.7211 146.243 63.5335C146.055 63.346 145.801 63.2407 145.536 63.2407C145.271 63.2407 145.016 63.346 144.829 63.5335C144.641 63.7211 144.536 63.9754 144.536 64.2407C144.536 64.5059 144.641 64.7602 144.829 64.9478C145.016 65.1353 145.271 65.2407 145.536 65.2407ZM100.656 124.64C100.921 124.64 101.175 124.534 101.363 124.347C101.55 124.159 101.656 123.905 101.656 123.64C101.656 123.374 101.55 123.12 101.363 122.933C101.175 122.745 100.921 122.64 100.656 122.64C100.391 122.64 100.136 122.745 99.9487 122.933C99.7612 123.12 99.6558 123.374 99.6558 123.64C99.6558 123.905 99.7612 124.159 99.9487 124.347C100.136 124.534 100.391 124.64 100.656 124.64ZM92.9558 74.7997C93.2476 74.7997 93.5274 74.6838 93.7336 74.4775C93.9399 74.2712 94.0558 73.9914 94.0558 73.6997C94.0558 73.4079 93.9399 73.1281 93.7336 72.9218C93.5274 72.7155 93.2476 72.5997 92.9558 72.5997C92.6641 72.5997 92.3843 72.7155 92.178 72.9218C91.9717 73.1281 91.8558 73.4079 91.8558 73.6997C91.8558 73.9914 91.9717 74.2712 92.178 74.4775C92.3843 74.6838 92.6641 74.7997 92.9558 74.7997ZM85.4758 91.9607C85.6203 91.9606 85.7634 91.9321 85.8969 91.8767C86.0304 91.8213 86.1517 91.7402 86.2538 91.638C86.356 91.5357 86.437 91.4144 86.4922 91.2808C86.5475 91.1473 86.5759 91.0042 86.5758 90.8597C86.5758 90.7151 86.5472 90.572 86.4919 90.4386C86.4365 90.3051 86.3554 90.1838 86.2531 90.0816C86.1509 89.9795 86.0296 89.8985 85.896 89.8432C85.7625 89.788 85.6193 89.7596 85.4748 89.7597C85.183 89.7598 84.9031 89.8759 84.6968 90.0823C84.4905 90.2888 84.3747 90.5688 84.3748 90.8607C84.375 91.1525 84.491 91.4324 84.6975 91.6387C84.904 91.845 85.184 91.9608 85.4758 91.9607ZM122.876 80.9607C123.02 80.9606 123.163 80.9321 123.297 80.8767C123.43 80.8213 123.552 80.7402 123.654 80.638C123.756 80.5357 123.837 80.4144 123.892 80.2808C123.947 80.1473 123.976 80.0042 123.976 79.8597C123.976 79.7151 123.947 79.572 123.892 79.4386C123.836 79.3051 123.755 79.1838 123.653 79.0816C123.551 78.9795 123.43 78.8985 123.296 78.8432C123.162 78.788 123.019 78.7596 122.875 78.7597C122.583 78.7598 122.303 78.8759 122.097 79.0823C121.891 79.2888 121.775 79.5688 121.775 79.8607C121.775 80.1525 121.891 80.4324 122.098 80.6387C122.304 80.845 122.584 80.9608 122.876 80.9607ZM68.0958 103.52C68.361 103.52 68.6154 103.414 68.8029 103.227C68.9905 103.039 69.0958 102.785 69.0958 102.52C69.0958 102.254 68.9905 102 68.8029 101.813C68.6154 101.625 68.361 101.52 68.0958 101.52C67.8306 101.52 67.5763 101.625 67.3887 101.813C67.2012 102 67.0958 102.254 67.0958 102.52C67.0958 102.785 67.2012 103.039 67.3887 103.227C67.5763 103.414 67.8306 103.52 68.0958 103.52ZM112.096 60.3997C112.361 60.3997 112.615 60.2943 112.803 60.1068C112.99 59.9192 113.096 59.6649 113.096 59.3997C113.096 59.1344 112.99 58.8801 112.803 58.6926C112.615 58.505 112.361 58.3997 112.096 58.3997C111.831 58.3997 111.576 58.505 111.389 58.6926C111.201 58.8801 111.096 59.1344 111.096 59.3997C111.096 59.6649 111.201 59.9192 111.389 60.1068C111.576 60.2943 111.831 60.3997 112.096 60.3997ZM111.216 76.2407C111.481 76.2407 111.735 76.1353 111.923 75.9478C112.11 75.7602 112.216 75.5059 112.216 75.2407C112.216 74.9754 112.11 74.7211 111.923 74.5335C111.735 74.346 111.481 74.2407 111.216 74.2407C110.951 74.2407 110.696 74.346 110.509 74.5335C110.321 74.7211 110.216 74.9754 110.216 75.2407C110.216 75.5059 110.321 75.7602 110.509 75.9478C110.696 76.1353 110.951 76.2407 111.216 76.2407ZM154.996 77.7807C155.261 77.7807 155.515 77.6753 155.703 77.4878C155.89 77.3002 155.996 77.0459 155.996 76.7807C155.996 76.5154 155.89 76.2611 155.703 76.0735C155.515 75.886 155.261 75.7807 154.996 75.7807C154.731 75.7807 154.476 75.886 154.289 76.0735C154.101 76.2611 153.996 76.5154 153.996 76.7807C153.996 77.0459 154.101 77.3002 154.289 77.4878C154.476 77.6753 154.731 77.7807 154.996 77.7807ZM135.196 89.6607C135.461 89.6607 135.715 89.5553 135.903 89.3678C136.09 89.1802 136.196 88.9259 136.196 88.6607C136.196 88.3954 136.09 88.1411 135.903 87.9536C135.715 87.766 135.461 87.6607 135.196 87.6607C134.931 87.6607 134.676 87.766 134.489 87.9536C134.301 88.1411 134.196 88.3954 134.196 88.6607C134.196 88.9259 134.301 89.1802 134.489 89.3678C134.676 89.5553 134.931 89.6607 135.196 89.6607ZM169.296 89.8797C169.561 89.8797 169.815 89.7743 170.003 89.5868C170.19 89.3992 170.296 89.1449 170.296 88.8797C170.296 88.6144 170.19 88.3601 170.003 88.1725C169.815 87.985 169.561 87.8797 169.296 87.8797C169.031 87.8797 168.776 87.985 168.589 88.1725C168.401 88.3601 168.296 88.6144 168.296 88.8797C168.296 89.1449 168.401 89.3992 168.589 89.5868C168.776 89.7743 169.031 89.8797 169.296 89.8797Z" fill="white"/>
            <path d="M206.734 189.157L197.362 198.529L219.491 220.659L228.864 211.286L206.734 189.157Z" fill="#541F9D"/>
            <path fill-rule="evenodd" clip-rule="evenodd" d="M183.889 196.772L205.27 175.391L214.935 185.056C216.488 186.609 217.361 188.716 217.361 190.914C217.361 193.111 216.488 195.218 214.935 196.772L205.27 206.437C203.716 207.99 201.609 208.863 199.412 208.863C197.215 208.863 195.107 207.99 193.554 206.437L183.889 196.772Z" fill="#BD93F7"/>
            <path d="M222.909 206.437L214.935 214.41C208.645 220.701 208.645 230.9 214.935 237.191L248.13 270.385C254.421 276.676 264.62 276.676 270.91 270.385L278.884 262.412C285.174 256.122 285.174 245.922 278.884 239.632L245.689 206.437C239.398 200.147 229.199 200.147 222.909 206.437Z" fill="#BD93F7"/>
            <path d="M194.579 186.081C227.659 153.001 227.659 99.3675 194.579 66.2875C161.499 33.2075 107.866 33.2075 74.7858 66.2875C41.7058 99.3675 41.7058 153.001 74.7858 186.081C107.866 219.161 161.499 219.161 194.579 186.081Z" stroke="#9854F6" stroke-width="20.711"/>
            <mask id="mask1_18128_818" style="mask-type:alpha" maskUnits="userSpaceOnUse" x="60" y="32" width="193" height="169">
                <path d="M134.64 200.64C175.83 200.64 209.22 167.25 209.22 126.06C209.22 112.202 258.705 68.2226 252.12 57.1046C239.134 35.1776 167.103 32.1196 139.772 32.1196C98.5818 32.1196 60.0598 84.8706 60.0598 126.06C60.0598 167.25 93.4508 200.64 134.64 200.64Z" fill="white"/>
            </mask>
            <g mask="url(#mask1_18128_818)">
                <path fill-rule="evenodd" clip-rule="evenodd" d="M231.173 73.0346C231.637 77.3958 230.534 81.7798 228.062 85.4026L189.839 141.43L199.934 162.13C187.221 185.093 162.746 200.641 134.64 200.641C132.442 200.641 130.245 200.545 128.055 200.354L123.824 190.828L122.424 199.645C108.104 197.285 95.1599 190.847 84.8229 181.563L87.1379 157.725C87.418 154.835 88.4087 152.06 90.0216 149.646C91.6345 147.232 93.8195 145.255 96.3819 143.891L136.296 122.632L162.803 99.5186L187.264 78.3096L128.36 79.6406L127.587 65.9376L152.198 62.8456L210.843 56.6116C220.992 55.5316 230.094 62.8856 231.173 73.0346Z" fill="white"/>
                <path fill-rule="evenodd" clip-rule="evenodd" d="M127.636 129.099L119.208 109.249L137.331 101.559L145.758 121.408" fill="white"/>
                <path d="M127.636 129.099L119.208 109.249L137.331 101.559L145.758 121.408" stroke="black" stroke-width="1.32" stroke-linecap="round" stroke-linejoin="round"/>
                <mask id="mask2_18128_818" style="mask-type:alpha" maskUnits="userSpaceOnUse" x="119" y="101" width="27" height="32">
                    <path d="M119.208 109.248L137.329 101.559L144.489 118.421C146.614 123.427 144.281 129.207 139.277 131.33C134.273 133.454 128.493 131.117 126.368 126.111L119.208 109.248Z" fill="white"/>
                </mask>
                <g mask="url(#mask2_18128_818)">
                    <path d="M139.747 112.456C151.051 107.659 156.619 95.3006 152.184 84.8536C147.748 74.4066 134.989 69.8266 123.685 74.6236C112.381 79.4216 106.813 91.7786 111.249 102.226C115.684 112.673 128.443 117.253 139.747 112.456Z" fill="black"/>
                </g>
                <path d="M114.443 65.6096L109.362 67.7666C101.661 71.0336 98.0699 79.9276 101.341 87.6306L106.075 98.7816C109.346 106.485 118.239 110.08 125.939 106.812L131.02 104.656C138.72 101.388 142.311 92.4946 139.041 84.7916L134.306 73.6406C131.036 65.9376 122.143 62.3416 114.443 65.6096Z" fill="black"/>
                <path fill-rule="evenodd" clip-rule="evenodd" d="M136.588 84.3277L138.313 83.2607C138.788 82.9671 139.324 82.7865 139.88 82.7328C140.436 82.679 140.997 82.7536 141.52 82.9508C142.042 83.1479 142.513 83.4624 142.895 83.87C143.277 84.2776 143.56 84.7674 143.723 85.3017L143.772 85.4607C144.194 86.8415 144.189 88.3175 143.757 89.6952C143.326 91.073 142.488 92.2883 141.354 93.1817L140.6 93.7767L136.588 84.3277Z" fill="white" stroke="black" stroke-width="1.32" stroke-linecap="round" stroke-linejoin="round"/>
                <path d="M139.772 86.3296L141.021 89.2716M140.557 88.1786L141.464 86.4836" stroke="black" stroke-width="1.32" stroke-linecap="round" stroke-linejoin="round"/>
                <path fill-rule="evenodd" clip-rule="evenodd" d="M107.57 96.6445L105.605 97.1445C105.063 97.282 104.561 97.5419 104.136 97.9043C103.711 98.2667 103.375 98.7219 103.153 99.2348C102.932 99.7476 102.831 100.304 102.859 100.862C102.887 101.42 103.043 101.964 103.314 102.453L103.395 102.599C104.095 103.861 105.161 104.883 106.452 105.53C107.743 106.177 109.199 106.419 110.63 106.224L111.582 106.095L107.57 96.6445Z" fill="white" stroke="black" stroke-width="1.32" stroke-linecap="round" stroke-linejoin="round"/>
                <path d="M106.8 100.326L108.049 103.268M107.584 102.176L105.735 101.651" stroke="black" stroke-width="1.32" stroke-linecap="round" stroke-linejoin="round"/>
                <path fill-rule="evenodd" clip-rule="evenodd" d="M134.678 79.8417L139.121 90.3057C142.523 98.3187 138.787 107.572 130.777 110.971C122.766 114.371 113.514 110.63 110.112 102.617L105.669 92.1527C102.267 84.1387 106.002 74.8867 114.013 71.4867C122.024 68.0877 131.276 71.8277 134.678 79.8417Z" fill="white" stroke="black" stroke-width="1.32" stroke-linecap="round" stroke-linejoin="round"/>
                <path d="M127.81 103.025C129.116 102.471 130.15 101.422 130.682 100.107C131.215 98.7919 131.204 97.3192 130.651 96.0126M122.487 93.7776L123.466 97.7426L125.655 97.2256" stroke="black" stroke-width="1.32" stroke-linecap="round" stroke-linejoin="round"/>
                <path d="M114.721 95.7636C116.299 95.0946 117.267 93.8186 116.883 92.9136C116.499 92.0086 114.908 91.8176 113.33 92.4876C111.752 93.1576 110.785 94.4335 111.169 95.3385C111.553 96.2425 113.143 96.4336 114.721 95.7636Z" stroke="black" stroke-width="0.73" stroke-linecap="round" stroke-linejoin="round"/>
                <path d="M114.721 95.7636C115.668 95.3616 116.124 94.3026 115.74 93.3976C115.356 92.4936 114.277 92.0856 113.33 92.4876C112.384 92.8896 111.928 93.9486 112.312 94.8526C112.696 95.7576 113.775 96.1656 114.721 95.7636Z" fill="black"/>
                <path d="M130.548 89.0466C132.126 88.3766 133.094 87.1006 132.71 86.1956C132.325 85.2906 130.735 85.1006 129.157 85.7696C127.579 86.4396 126.611 87.7156 126.995 88.6206C127.379 89.5256 128.97 89.7156 130.548 89.0466Z" stroke="black" stroke-width="0.73" stroke-linecap="round" stroke-linejoin="round"/>
                <path d="M130.548 89.0455C131.495 88.6435 131.951 87.5845 131.567 86.6805C131.183 85.7755 130.104 85.3675 129.157 85.7695C128.21 86.1715 127.754 87.2305 128.138 88.1345C128.522 89.0395 129.601 89.4475 130.548 89.0455Z" fill="black"/>
                <path fill-rule="evenodd" clip-rule="evenodd" d="M118.389 60.5295C120.957 60.3075 122.464 61.5995 122.91 64.4025C126.001 63.6365 128.897 63.5105 131.598 64.0265C137.639 65.1805 139.904 71.7145 136.857 77.5295C137.12 78.9645 137.414 80.7125 137.74 82.7725C136.892 83.6675 136.292 84.0535 135.942 83.9305C134.818 83.5311 133.754 82.9815 132.778 82.2965C130.056 84.4075 126.252 86.0485 121.243 86.7255C113.99 87.7065 109.268 86.7705 107.078 83.9205C107.587 88.4745 107.449 92.4015 106.664 95.7005C100.434 92.1805 97.1349 88.2345 96.7679 83.8625C96.4439 80.0055 98.0129 77.8275 101.473 77.3265C102.402 71.8045 111.295 61.1415 118.389 60.5295Z" fill="black"/>
                <path d="M106.664 95.7006C101.02 92.3746 97.1349 88.2336 96.7679 83.8626C96.4439 80.0056 98.0129 77.8266 101.473 77.3266C102.403 71.8036 111.295 61.1416 118.389 60.5296C120.956 60.3076 122.464 61.5986 122.91 64.4026C126.001 63.6356 128.897 63.5106 131.598 64.0266C136.901 65.0396 138.301 70.7786 136.746 75.9576C137.12 78.0316 137.378 80.6376 137.74 82.7716" stroke="white" stroke-width="0.88" stroke-linecap="round" stroke-linejoin="round"/>
                <path d="M124.996 197.951L121.225 190.295" stroke="black" stroke-width="1.32" stroke-linecap="round" stroke-linejoin="round"/>
                <path d="M117.817 138.214L145.283 141.632L155.212 116.38" stroke="black" stroke-width="1.32" stroke-linejoin="round"/>
                <path fill-rule="evenodd" clip-rule="evenodd" d="M147.137 48.1496L149.368 93.6776L166.061 91.9496L151.611 108.878L211.642 236.338L230.741 200.171L196.575 138.86L231.731 84.3546C239.633 72.1046 236.109 55.7626 223.862 47.8526C219.04 44.7376 213.335 43.2799 207.61 43.7006L147.137 48.1496Z" fill="#EAEBED" stroke="black" stroke-width="1.32" stroke-linejoin="round"/>
                <path d="M165.136 93.1025L174.78 80.9045" stroke="black" stroke-width="1.32" stroke-linecap="round" stroke-linejoin="round"/>
                <path fill-rule="evenodd" clip-rule="evenodd" d="M162.93 96.0107L168.417 128.479L176.437 126.883C177.388 126.694 178.367 126.703 179.315 126.91C180.262 127.118 181.156 127.518 181.941 128.087C182.726 128.656 183.385 129.381 183.877 130.217C184.369 131.052 184.682 131.98 184.799 132.943L191.755 190.295" fill="#EAEBED"/>
                <path d="M162.93 96.0107L168.417 128.479L176.437 126.883C177.388 126.694 178.367 126.703 179.315 126.91C180.262 127.118 181.156 127.518 181.941 128.087C182.726 128.656 183.385 129.381 183.877 130.217C184.369 131.052 184.682 131.98 184.799 132.943L191.755 190.295" stroke="black" stroke-width="1.32" stroke-linejoin="round"/>
                <path fill-rule="evenodd" clip-rule="evenodd" d="M116.564 132.88L170.176 254.976L150.281 264.112L123.109 208.549L119.211 225.646L81.3029 212.289L87.0229 157.999C87.3368 155.016 88.3725 152.154 90.0407 149.661C91.7088 147.168 93.959 145.119 96.5968 143.691L116.564 132.88Z" fill="#EAEBED" stroke="black" stroke-width="1.32" stroke-linejoin="round"/>
                <path d="M197.455 140.424L193.644 133.761" stroke="black" stroke-width="1.32" stroke-linecap="round" stroke-linejoin="round"/>
                <path fill-rule="evenodd" clip-rule="evenodd" d="M103.335 139.497L122.873 162.106L117.965 173.67C117.503 174.759 117.342 175.953 117.499 177.126C117.656 178.299 118.126 179.408 118.859 180.338L157.416 229.23" fill="#EAEBED"/>
                <path d="M103.335 139.497L122.873 162.106L117.965 173.67C117.503 174.759 117.342 175.953 117.499 177.126C117.656 178.299 118.126 179.408 118.859 180.338L157.416 229.23" stroke="black" stroke-width="1.32" stroke-linejoin="round"/>
            </g>
            <path fill-rule="evenodd" clip-rule="evenodd" d="M143.535 79.2215L95.9798 83.0916C94.3387 83.2246 92.7088 82.7256 91.4235 81.6965C90.1383 80.6674 89.2948 79.186 89.0658 77.5555C88.9548 76.7676 89.0002 75.9655 89.1992 75.1951C89.3983 74.4247 89.7472 73.701 90.226 73.0654C90.7048 72.4299 91.3041 71.8949 91.9897 71.491C92.6753 71.0871 93.4338 70.8222 94.2218 70.7115L94.2488 70.7076L146.069 63.6646" fill="white"/>
            <path d="M143.535 79.2215L95.9798 83.0916C94.3387 83.2246 92.7088 82.7256 91.4235 81.6965C90.1383 80.6674 89.2948 79.186 89.0658 77.5555C88.9548 76.7676 89.0002 75.9655 89.1992 75.1951C89.3983 74.4247 89.7472 73.701 90.226 73.0654C90.7048 72.4299 91.3041 71.8949 91.9897 71.491C92.6753 71.0871 93.4338 70.8222 94.2218 70.7115L94.2488 70.7076L146.069 63.6646" stroke="black" stroke-width="1.716" stroke-linecap="round" stroke-linejoin="round"/>
            <path fill-rule="evenodd" clip-rule="evenodd" d="M143.536 79.2205L110.206 81.2225C108.551 81.3216 106.92 80.7938 105.637 79.7441C104.354 78.6945 103.514 77.2 103.283 75.5585C103.172 74.7718 103.218 73.9709 103.416 73.2017C103.615 72.4325 103.963 71.7099 104.442 71.0753C104.92 70.4407 105.518 69.9065 106.202 69.5032C106.887 69.0998 107.644 68.8352 108.431 68.7245L108.467 68.7195L146.069 63.6655" fill="white"/>
            <path d="M143.536 79.2205L110.206 81.2225C108.551 81.3216 106.92 80.7938 105.637 79.7441C104.354 78.6945 103.514 77.2 103.283 75.5585C103.172 74.7718 103.218 73.9709 103.416 73.2017C103.615 72.4325 103.963 71.7099 104.442 71.0753C104.92 70.4407 105.518 69.9065 106.202 69.5032C106.887 69.0998 107.644 68.8352 108.431 68.7245L108.467 68.7195L146.069 63.6655" stroke="black" stroke-width="1.32" stroke-linecap="round" stroke-linejoin="round"/>
            <path d="M88.6458 173.837C89.0346 173.074 89.2692 172.242 89.3364 171.388C89.4035 170.534 89.3019 169.676 89.0373 168.862C88.7727 168.047 88.3503 167.293 87.7942 166.642C87.2381 165.991 86.5593 165.456 85.7963 165.067C85.0334 164.678 84.2014 164.444 83.3478 164.377C82.4942 164.309 81.6358 164.411 80.8214 164.676C80.0071 164.94 79.2529 165.363 78.6018 165.919C77.9507 166.475 77.4156 167.154 77.0268 167.917L70.5118 180.703C70.1172 181.466 69.8775 182.3 69.8063 183.157C69.7352 184.013 69.8341 184.875 70.0973 185.693C70.3606 186.511 70.783 187.269 71.3402 187.924C71.8975 188.578 72.5786 189.116 73.3444 189.506C74.1102 189.896 74.9456 190.131 75.8025 190.197C76.6594 190.263 77.5209 190.159 78.3374 189.891C79.154 189.623 79.9095 189.196 80.5606 188.635C81.2116 188.074 81.7452 187.39 82.1308 186.622L88.6458 173.837Z" fill="white" stroke="black" stroke-width="1.32" stroke-linecap="round" stroke-linejoin="round"/>
            <path d="M100.269 179.758C100.672 178.993 100.919 178.156 100.996 177.296C101.073 176.435 100.978 175.567 100.717 174.744C100.456 173.92 100.033 173.156 99.4744 172.497C98.9154 171.838 98.231 171.297 97.4609 170.905C96.6909 170.512 95.8505 170.277 94.9887 170.212C94.127 170.148 93.2609 170.255 92.441 170.528C91.6211 170.801 90.8636 171.234 90.2125 171.803C89.5615 172.371 89.03 173.063 88.6488 173.839L82.1338 186.625C81.7392 187.388 81.4994 188.222 81.4283 189.079C81.3571 189.935 81.456 190.797 81.7193 191.615C81.9825 192.434 82.4049 193.192 82.9622 193.846C83.5194 194.5 84.2005 195.038 84.9663 195.428C85.7321 195.818 86.5675 196.053 87.4244 196.119C88.2813 196.185 89.1428 196.081 89.9594 195.813C90.776 195.545 91.5315 195.118 92.1825 194.557C92.8335 193.996 93.3672 193.312 93.7528 192.544L100.269 179.758Z" fill="white" stroke="black" stroke-width="1.32" stroke-linecap="round" stroke-linejoin="round"/>
            <path d="M111.891 185.68C112.285 184.916 112.525 184.082 112.596 183.226C112.667 182.369 112.569 181.507 112.305 180.689C112.042 179.871 111.62 179.113 111.062 178.459C110.505 177.804 109.824 177.267 109.058 176.876C108.292 176.486 107.457 176.251 106.6 176.185C105.743 176.119 104.882 176.223 104.065 176.491C103.249 176.759 102.493 177.186 101.842 177.747C101.191 178.308 100.657 178.993 100.272 179.761L93.7558 192.547C93.3526 193.311 93.1053 194.148 93.0283 195.009C92.9514 195.869 93.0463 196.737 93.3076 197.561C93.5688 198.384 93.9912 199.148 94.5502 199.807C95.1092 200.466 95.7936 201.008 96.5636 201.4C97.3337 201.792 98.174 202.027 99.0358 202.092C99.8976 202.157 100.764 202.049 101.584 201.776C102.404 201.503 103.161 201.07 103.812 200.502C104.463 199.933 104.995 199.241 105.376 198.466L111.891 185.68Z" fill="white" stroke="black" stroke-width="1.32" stroke-linecap="round" stroke-linejoin="round"/>
            <path d="M123.513 191.602C123.907 190.838 124.147 190.004 124.218 189.148C124.289 188.291 124.191 187.429 123.927 186.611C123.664 185.793 123.242 185.035 122.684 184.38C122.127 183.726 121.446 183.188 120.68 182.798C119.914 182.408 119.079 182.173 118.222 182.107C117.365 182.041 116.504 182.145 115.687 182.413C114.871 182.681 114.115 183.108 113.464 183.669C112.813 184.23 112.279 184.914 111.894 185.683L105.379 198.468C104.99 199.23 104.755 200.062 104.688 200.916C104.621 201.77 104.723 202.628 104.987 203.442C105.252 204.257 105.674 205.011 106.23 205.662C106.787 206.313 107.465 206.848 108.228 207.237C108.991 207.626 109.823 207.86 110.677 207.928C111.53 207.995 112.389 207.893 113.203 207.629C114.018 207.364 114.772 206.942 115.423 206.385C116.074 205.829 116.609 205.15 116.998 204.388L123.513 191.602Z" fill="white" stroke="black" stroke-width="1.32" stroke-linecap="round" stroke-linejoin="round"/>
        </g>
    </g>
    <g id="404">
        <rect width="93.7143" height="50" fill="white"/>
        <rect x="93.7142" width="93.7143" height="50" fill="#FBE54D"/>
        <rect x="187.429" width="93.7143" height="50" fill="#74FADB"/>
        <rect x="281.143" width="93.7143" height="50" fill="#68DC42"/>
        <rect x="374.857" width="93.7143" height="50" fill="#E83CF2"/>
        <rect x="468.572" width="93.7143" height="50" fill="#D52D25"/>
        <rect x="562.286" width="93.7143" height="50" fill="#0732B3"/>
        <path d="M62.9325 117.91H57.2422V78H80.0424V80.8646H82.8876V83.7098H85.7327V97.9551H82.8876V100.82H80.0424V103.665H62.9325V117.91ZM62.9325 97.9551H77.1973V95.1099H80.0424V86.555H77.1973V83.7098H62.9325V97.9551Z" fill="black"/>
        <path d="M92.8651 117.91H87.1748V109.375H90.02V100.82H92.8651V92.2648H95.7103V83.7098H98.5749V78H107.13V83.7098H109.975V92.2648H112.82V100.82H115.665V109.375H118.53V117.91H112.82V109.375H92.8651V117.91ZM95.7103 103.665H109.975V100.82H107.13V92.2648H104.265V86.555H101.42V92.2648H98.5749V100.82H95.7103V103.665Z" fill="black"/>
        <path d="M145.598 117.91H131.333V115.065H128.488V112.22H125.643V109.375H122.798V86.555H125.643V83.7098H128.488V80.8646H131.333V78H148.443V80.8646H151.288V83.7098H154.153V86.555H156.998V92.2648H151.288V89.4196H148.443V86.555H145.598V83.7098H134.198V86.555H131.333V89.4196H128.488V106.51H131.333V109.375H134.198V112.22H145.598V109.375H148.443V106.51H151.288V103.665H142.753V97.9551H156.998V117.91H151.288V112.22H148.443V115.065H145.598V117.91Z" fill="black"/>
        <path d="M191.198 117.91H162.708V78H191.198V83.7098H168.398V93.6873H188.353V99.3971H168.398V112.22H191.198V117.91Z" fill="black"/>
        <path d="M213.999 117.91H208.308V78H216.844V83.7098H219.709V89.4196H222.554V95.1099H225.399V100.82H228.263V106.51H231.109V78H236.799V117.91H228.263V112.22H225.399V106.51H222.554V100.82H219.709V95.1099H216.844V89.4196H213.999V117.91Z" fill="black"/>
        <path d="M268.174 117.91H251.064V115.065H248.219V112.22H245.373V109.375H242.528V86.555H245.373V83.7098H248.219V80.8646H251.064V78H268.174V80.8646H271.019V83.7098H273.883V86.555H276.729V109.375H273.883V112.22H271.019V115.065H268.174V117.91ZM253.928 112.22H265.328V109.375H268.174V106.51H271.019V89.4196H268.174V86.555H265.328V83.7098H253.928V86.555H251.064V89.4196H248.219V106.51H251.064V109.375H253.928V112.22Z" fill="black"/>
        <path d="M296.703 117.91H291.013V83.7098H279.613V78H308.103V83.7098H296.703V117.91Z" fill="black"/>
        <path d="M329.442 117.91H323.752V78H352.242V83.7098H329.442V95.1099H349.397V100.82H329.442V117.91Z" fill="black"/>
        <path d="M380.733 117.91H363.623V115.065H360.778V112.22H357.933V109.375H355.087V86.555H357.933V83.7098H360.778V80.8646H363.623V78H380.733V80.8646H383.578V83.7098H386.443V86.555H389.288V109.375H386.443V112.22H383.578V115.065H380.733V117.91ZM366.487 112.22H377.888V109.375H380.733V106.51H383.578V89.4196H380.733V86.555H377.888V83.7098H366.487V86.555H363.623V89.4196H360.778V106.51H363.623V109.375H366.487V112.22Z" fill="black"/>
        <path d="M417.798 117.91H400.688V115.065H397.843V112.22H394.998V78H400.688V109.375H403.533V112.22H414.953V109.375H417.798V78H423.488V112.22H420.643V115.065H417.798V117.91Z" fill="black"/>
        <path d="M434.908 117.91H429.217V78H437.753V83.7098H440.617V89.4196H443.463V95.1099H446.308V100.82H449.172V106.51H452.018V78H457.708V117.91H449.172V112.22H446.308V106.51H443.463V100.82H440.617V95.1099H437.753V89.4196H434.908V117.91Z" fill="black"/>
        <path d="M486.237 117.91H463.437V78H486.237V80.8646H489.083V83.7098H491.928V86.555H494.792V109.375H491.928V112.22H489.083V115.065H486.237V117.91ZM469.128 112.22H483.392V109.375H486.237V106.51H489.083V89.4196H486.237V86.555H483.392V83.7098H469.128V112.22Z" fill="black"/>
        <path d="M534.644 117.91H528.934V109.375H511.844V100.82H514.689V95.1099H517.534V89.4196H520.379V83.7098H523.244V78H534.644V105.087H537.489V109.375H534.644V117.91ZM517.534 105.087H528.934V83.7098H526.089V89.4196H523.244V95.1099H520.379V100.82H517.534V105.087Z" fill="black"/>
        <path d="M561.732 117.91H547.467V115.065H544.622V112.22H541.777V83.7098H544.622V80.8646H547.467V78H561.732V80.8646H564.577V83.7098H567.422V112.22H564.577V115.065H561.732V117.91ZM550.312 112.22H558.867V109.375H561.732V86.555H558.867V83.7098H550.312V86.555H547.467V109.375H550.312V112.22Z" fill="black"/>
        <path d="M595.913 117.91H590.203V109.375H573.112V100.82H575.957V95.1099H578.803V89.4196H581.648V83.7098H584.512V78H595.913V105.087H598.758V109.375H595.913V117.91ZM578.803 105.087H590.203V83.7098H587.358V89.4196H584.512V95.1099H581.648V100.82H578.803V105.087Z" fill="black"/>
        <rect y="145.91" width="93.7143" height="50" fill="white"/>
        <rect x="93.7142" y="145.91" width="93.7143" height="50" fill="#FBE54D"/>
        <rect x="187.429" y="145.91" width="93.7143" height="50" fill="#74FADB"/>
        <rect x="281.143" y="145.91" width="93.7143" height="50" fill="#68DC42"/>
        <rect x="374.857" y="145.91" width="93.7143" height="50" fill="#E83CF2"/>
        <rect x="468.572" y="145.91" width="93.7143" height="50" fill="#D52D25"/>
        <rect x="562.286" y="145.91" width="93.7143" height="50" fill="#0732B3"/>
    </g>
    <g id="ratedMovies">
    <mask id="mask0_18128_763" style="mask-type:alpha" maskUnits="userSpaceOnUse" x="45" y="44" width="312" height="219">
        <path d="M232.034 64.487C296.408 97.497 314.791 75.802 343.744 119.783C372.697 163.765 352.969 245.958 292.133 259.434C231.296 272.91 220.389 239.729 137.825 254.123C55.262 268.517 13.382 142.924 75.118 90.553C136.855 38.183 167.661 31.477 232.034 64.487Z" fill="white"/>
    </mask>
    <g mask="url(#mask0_18128_763)">
        <path d="M232.034 64.487C296.408 97.497 314.791 75.802 343.744 119.783C372.697 163.765 352.969 245.958 292.133 259.434C231.296 272.91 220.389 239.729 137.825 254.123C55.262 268.517 13.382 142.924 75.118 90.553C136.855 38.183 167.661 31.477 232.034 64.487Z" fill="#F2EBF9"/>
        <path d="M167.66 -0.679932C172.369 60.4771 194.281 97.4991 233.396 110.385C272.511 123.272 325.66 104.761 392.842 54.8531" stroke="white" stroke-width="1.32"/>
        <path d="M190.806 -0.679932C201.231 71.2191 177.817 108.365 120.566 110.76C34.6891 114.352 96.7331 49.1351 126.03 75.1331C155.327 101.13 152.942 157.423 107.23 196.005C76.7551 221.727 42.0331 234.588 3.06409 234.588M367.769 196.825C240.858 188.625 140.19 233.817 65.7651 332.401" stroke="white" stroke-width="1.32"/>
        <path d="M34.6901 195.88C117.937 218.195 171.606 263.702 195.696 332.401" stroke="white" stroke-width="1.32"/>
        <path d="M367.769 116.954C311.599 173.024 272.39 189.326 250.141 165.86C216.767 130.662 280.514 102.944 289.917 134.402C299.32 165.86 249.05 190.826 182.121 201.93C137.502 209.333 84.7041 241.717 23.7271 299.083M243.702 332.401C235.447 283.393 246.243 257.105 276.089 253.538C305.936 249.971 339.122 263.115 375.647 292.969M285.263 59.825C307.878 59.825 326.211 34.105 326.211 2.37598C326.211 -29.352 307.878 -55.072 285.263 -55.072C262.649 -55.072 244.316 -29.352 244.316 2.37598C244.316 34.104 262.649 59.825 285.263 59.825Z" stroke="white" stroke-width="1.32"/>
        <path d="M367.769 153.387C314.599 205.224 291.782 268.07 299.32 341.925" stroke="white" stroke-width="1.32"/>
        <path d="M34.6901 126.345C166.014 152.879 269.066 224.739 343.844 341.925" stroke="white" stroke-width="1.32"/>
        <path d="M82.9301 -0.679932C42.7901 7.53407 27.9501 24.6621 38.4081 50.7051C54.0951 89.7691 111.904 163.64 34.6901 176.452M34.6901 264.141C65.9461 310.73 99.0671 322.378 134.051 299.083C186.528 264.141 204.321 256.887 226.192 264.141C240.773 268.976 254.033 291.73 265.97 332.401" stroke="white" stroke-width="1.32"/>
        <path d="M358.792 205.358H45.0721V267.838H358.792V205.358Z" fill="#F2EBF9"/>
        <path d="M17.7921 205.021H400.592" stroke="black" stroke-width="1.294" stroke-linecap="round" stroke-linejoin="round"/>
    </g>
    <mask id="mask1_18128_763" style="mask-type:alpha" maskUnits="userSpaceOnUse" x="96" y="102" width="33" height="42">
        <path d="M96.2 110.384L113.921 102.497L128.659 135.591L110.939 143.478L96.2 110.384Z" fill="white"/>
    </mask>
    <g mask="url(#mask1_18128_763)">
        <path d="M96.2 110.384L113.921 102.496L128.659 135.59L110.938 143.478L96.2 110.384Z" fill="white" stroke="black" stroke-width="1.384" stroke-linecap="round" stroke-linejoin="round"/>
        <path d="M121.299 116.035C132.353 111.114 137.618 98.8251 133.057 88.5851C128.497 78.3451 115.839 74.0321 104.784 78.9531C93.7298 83.8731 88.4648 96.1631 93.0258 106.403C97.5858 116.643 110.244 120.955 121.299 116.035Z" fill="black"/>
    </g>
    <path d="M216.98 175.79L217.422 200.795L260.41 200.053L259.969 175.048L216.98 175.79Z" fill="white"/>
    <path fill-rule="evenodd" clip-rule="evenodd" d="M244.433 186.615L257.13 186.886V188.31L253.867 188.309C252.955 188.309 252.052 188.488 251.209 188.837C250.366 189.185 249.6 189.697 248.955 190.342C248.31 190.987 247.798 191.752 247.449 192.595C247.1 193.438 246.92 194.341 246.92 195.253V195.27C246.925 197.118 247.663 198.89 248.972 200.195C250.281 201.5 252.055 202.233 253.903 202.233L258.712 202.234C265.214 202.235 270.485 196.967 270.483 190.467V186.49C270.481 177.793 263.427 170.742 254.727 170.741H254.726L209.56 170.732" fill="white"/>
    <path d="M244.433 186.615L257.13 186.886V188.31L253.867 188.309C252.955 188.309 252.052 188.488 251.209 188.837C250.366 189.185 249.6 189.697 248.955 190.342C248.31 190.987 247.798 191.752 247.449 192.595C247.1 193.438 246.92 194.341 246.92 195.253V195.27C246.925 197.118 247.663 198.89 248.972 200.195C250.281 201.5 252.055 202.233 253.903 202.233L258.712 202.234C265.214 202.235 270.485 196.967 270.483 190.467V186.49C270.481 177.793 263.427 170.742 254.727 170.741H254.726L209.56 170.732" stroke="black" stroke-width="1.384" stroke-linecap="round" stroke-linejoin="round"/>
    <path fill-rule="evenodd" clip-rule="evenodd" d="M244.433 186.615L257.13 186.886V188.31L253.867 188.309C252.955 188.309 252.052 188.488 251.209 188.837C250.366 189.185 249.6 189.697 248.955 190.342C248.31 190.987 247.798 191.752 247.449 192.595C247.1 193.438 246.92 194.341 246.92 195.253V195.27C246.925 197.118 247.663 198.89 248.972 200.195C250.281 201.5 252.055 202.233 253.903 202.233L258.712 202.234C265.214 202.235 270.485 196.967 270.483 190.467V186.49C270.481 177.793 263.427 170.742 254.727 170.741H254.726L209.56 170.732" fill="white"/>
    <path d="M244.433 186.615L257.13 186.886V188.31L253.867 188.309C252.955 188.309 252.052 188.488 251.209 188.837C250.366 189.185 249.6 189.697 248.955 190.342C248.31 190.987 247.798 191.752 247.449 192.595C247.1 193.438 246.92 194.341 246.92 195.253V195.27C246.925 197.118 247.663 198.89 248.972 200.195C250.281 201.5 252.055 202.233 253.903 202.233L258.712 202.234C265.214 202.235 270.485 196.967 270.483 190.467V186.49C270.481 177.793 263.427 170.742 254.727 170.741H254.726L209.56 170.732" stroke="black" stroke-width="1.384" stroke-linecap="round" stroke-linejoin="round"/>
    <path fill-rule="evenodd" clip-rule="evenodd" d="M211.692 207.182L246.934 207.188C248.746 207.189 250.487 206.478 251.78 205.208C253.073 203.938 253.815 202.211 253.847 200.399C253.877 198.628 253.203 196.918 251.972 195.645C250.742 194.371 249.056 193.639 247.285 193.608L247.168 193.607L230.693 193.604" fill="white"/>
    <path d="M211.692 207.182L246.934 207.188C248.746 207.189 250.487 206.478 251.78 205.208C253.073 203.938 253.815 202.211 253.847 200.399C253.877 198.628 253.203 196.918 251.972 195.645C250.742 194.371 249.056 193.639 247.285 193.608L247.168 193.607L230.693 193.604" stroke="black" stroke-width="1.32" stroke-linecap="round" stroke-linejoin="round"/>
    <path fill-rule="evenodd" clip-rule="evenodd" d="M111.644 127.635C116.576 125.265 122.128 124.506 127.515 125.467C132.902 126.428 137.85 129.059 141.658 132.988L172.825 165.133L221.218 164.298L222.006 208.922L148.882 210.184C142.091 210.3 135.423 208.373 129.741 204.653C124.058 200.933 119.625 195.592 117.015 189.322L101.94 153.128C97.8879 143.398 102.15 132.2 111.644 127.635Z" fill="#EAEBED" stroke="black" stroke-width="1.32" stroke-linejoin="round"/>
    <path d="M180.306 165.053L158.03 166.01L143.883 145.244" stroke="black" stroke-width="1.32" stroke-linecap="round" stroke-linejoin="round"/>
    <path d="M115.144 126.335C120.227 125.201 125.539 125.698 130.323 127.755C135.108 129.812 139.123 133.324 141.798 137.793L143.565 140.743L147.539 141.398C147.645 144.121 148.337 146.789 149.568 149.221C150.799 151.652 152.54 153.789 154.672 155.486L167.344 165.573" stroke="black" stroke-width="1.32" stroke-linecap="round" stroke-linejoin="round"/>
    <path fill-rule="evenodd" clip-rule="evenodd" d="M207.401 160.142L222.168 161.452L223.052 211.575L206.088 213.176L207.401 160.142Z" fill="#EAEBED" stroke="black" stroke-width="1.32" stroke-linejoin="round"/>
    <path fill-rule="evenodd" clip-rule="evenodd" d="M223.527 170.865L224.97 206.846L222.976 206.88L222.342 170.885L223.527 170.865ZM89.904 72.7041C98.992 68.6591 109.642 72.7501 113.692 81.8421C113.79 82.0621 113.884 82.2861 113.973 82.5101L115.914 87.3881C119.616 96.6881 115.319 107.25 106.178 111.319C97.142 115.341 86.553 111.273 82.528 102.233L80.405 97.4681C76.19 88.0021 80.442 76.9151 89.904 72.7041Z" fill="black"/>
    <path fill-rule="evenodd" clip-rule="evenodd" d="M115.689 83.8881L120.291 94.2221C123.78 102.056 120.26 111.231 112.43 114.717C104.6 118.202 95.425 114.677 91.936 106.844L87.334 96.5091C83.845 88.6761 87.364 79.5001 95.194 76.0151C103.025 72.5301 112.2 76.0551 115.689 83.8881Z" fill="white" stroke="black" stroke-width="1.412" stroke-linecap="round" stroke-linejoin="round"/>
    <path fill-rule="evenodd" clip-rule="evenodd" d="M116.752 89.604L119.544 91.067L121.057 92.555L119.809 96.469L116.769 93.042L116.752 89.604Z" fill="white"/>
    <path d="M117.073 104.905C115.794 105.474 114.341 105.511 113.034 105.009C111.727 104.507 110.673 103.506 110.104 102.227" stroke="black" stroke-width="1.412" stroke-linecap="round" stroke-linejoin="round"/>
    <path fill-rule="evenodd" clip-rule="evenodd" d="M87.91 77.61C83.026 77.19 80.647 79.841 80.771 85.56C80.869 90.088 82.719 98.125 92.052 107.24C92.439 107.619 91.8 100.09 91.967 99.455C93.229 94.635 93.509 89.732 92.808 84.744C92.015 79.097 90.382 76.72 87.91 77.61Z" fill="black"/>
    <path fill-rule="evenodd" clip-rule="evenodd" d="M82.4169 77.3089C80.0009 77.0539 74.1499 78.4309 74.3369 87.0089C74.4349 91.5379 77.6869 102.456 87.6169 108.817C87.9959 109.059 85.3649 101.54 85.5319 100.904C86.7939 96.0849 87.0739 91.1809 86.3729 86.1929C85.1829 77.7229 84.8329 77.5629 82.4169 77.3089Z" fill="black"/>
    <path fill-rule="evenodd" clip-rule="evenodd" d="M91.7401 98.4519L89.9801 98.9319C89.4294 99.0822 88.9206 99.3569 88.4928 99.7349C88.065 100.113 87.7297 100.584 87.5126 101.112C87.2956 101.64 87.2026 102.21 87.2408 102.78C87.279 103.35 87.4474 103.903 87.7331 104.397C88.4463 105.632 89.5157 106.623 90.8015 107.24C92.0872 107.857 93.5294 108.072 94.9391 107.856L95.8661 107.714" fill="white"/>
    <path d="M91.7401 98.4519L89.9801 98.9319C89.4294 99.0822 88.9206 99.3569 88.4928 99.7349C88.065 100.113 87.7297 100.584 87.5126 101.112C87.2956 101.64 87.2026 102.21 87.2408 102.78C87.279 103.35 87.4474 103.903 87.7331 104.397C88.4463 105.632 89.5157 106.623 90.8015 107.24C92.0872 107.857 93.5294 108.072 94.9391 107.856L95.8661 107.714M91.0481 102.098L92.3321 104.982M91.8551 103.911L90.0221 103.423" stroke="black" stroke-width="1.412" stroke-linecap="round" stroke-linejoin="round"/>
    <path fill-rule="evenodd" clip-rule="evenodd" d="M118.246 89.814L123.146 94.24L120.465 97.11" fill="white"/>
    <path d="M118.246 89.814L123.146 94.24L120.465 97.11" stroke="black" stroke-width="1.412" stroke-linecap="round" stroke-linejoin="round"/>
    <path d="M111.957 93.7201C113.5 93.0331 114.431 91.7571 114.036 90.8701C113.641 89.9831 112.07 89.8211 110.527 90.5081C108.984 91.1951 108.053 92.4711 108.448 93.3581C108.843 94.2441 110.414 94.4071 111.957 93.7201Z" stroke="black" stroke-width="0.941" stroke-linecap="round" stroke-linejoin="round"/>
    <path d="M111.957 93.72C112.883 93.307 113.313 92.254 112.918 91.368C112.524 90.481 111.453 90.096 110.527 90.508C109.601 90.92 109.171 91.973 109.566 92.86C109.96 93.747 111.031 94.131 111.957 93.72Z" fill="black"/>
    <path fill-rule="evenodd" clip-rule="evenodd" d="M88.178 76.7039C98.03 69.2139 106.543 66.0009 113.718 67.0639C124.479 68.6579 123.598 86.6289 102.979 90.0609C89.233 92.3489 84.299 87.8969 88.178 76.7039Z" fill="black"/>
    <path fill-rule="evenodd" clip-rule="evenodd" d="M80.731 82.46C79.922 77.703 91.282 62.604 100.294 62.567C106.302 62.542 107.258 68.16 103.162 79.421C88.747 84.617 81.271 85.63 80.732 82.459L80.731 82.46ZM58.552 83.271L60.942 82.257C65.874 80.163 71.57 82.464 73.664 87.397L123.403 204.575L99.725 205.098L53.413 95.993C51.319 91.06 53.62 85.365 58.553 83.271H58.552Z" fill="black"/>
    <path d="M291.196 140.318V204.653M334.531 140.318V204.653M286.512 143.953H338.859" stroke="#436FFF" stroke-width="1.384" stroke-linecap="round" stroke-linejoin="round"/>
    <path d="M298.976 143.92V177.815" stroke="#436FFF" stroke-width="0.97" stroke-linecap="round" stroke-linejoin="round"/>
    <path d="M298.976 185.963C299.528 185.963 300.075 185.854 300.585 185.643C301.095 185.431 301.559 185.122 301.949 184.731C302.34 184.341 302.649 183.877 302.861 183.367C303.072 182.857 303.181 182.31 303.181 181.757C303.18 181.205 303.072 180.658 302.86 180.148C302.649 179.638 302.339 179.175 301.949 178.784C301.558 178.394 301.094 178.084 300.584 177.873C300.074 177.662 299.527 177.553 298.975 177.553C297.86 177.553 296.79 177.996 296.002 178.785C295.213 179.574 294.77 180.643 294.771 181.758C294.771 182.874 295.214 183.943 296.002 184.732C296.791 185.52 297.861 185.963 298.976 185.963Z" fill="#436FFF"/>
    <path d="M308.031 143.92V177.815" stroke="#436FFF" stroke-width="0.97" stroke-linecap="round" stroke-linejoin="round"/>
    <path d="M308.031 185.963C308.583 185.963 309.13 185.854 309.64 185.643C310.15 185.431 310.614 185.122 311.004 184.731C311.395 184.341 311.704 183.877 311.916 183.367C312.127 182.857 312.236 182.31 312.235 181.757C312.235 181.205 312.127 180.658 311.915 180.148C311.704 179.638 311.394 179.175 311.003 178.784C310.613 178.394 310.149 178.084 309.639 177.873C309.129 177.662 308.582 177.553 308.03 177.553C306.915 177.553 305.845 177.996 305.057 178.785C304.268 179.574 303.825 180.643 303.825 181.758C303.826 182.874 304.269 183.943 305.057 184.732C305.846 185.52 306.916 185.963 308.031 185.963Z" fill="#436FFF"/>
    <path d="M317.086 143.92V177.815" stroke="#436FFF" stroke-width="0.97" stroke-linecap="round" stroke-linejoin="round"/>
    <path d="M317.086 185.963C317.638 185.963 318.185 185.854 318.695 185.643C319.205 185.431 319.669 185.122 320.059 184.731C320.45 184.341 320.759 183.877 320.97 183.367C321.182 182.857 321.29 182.31 321.29 181.757C321.29 181.205 321.181 180.658 320.97 180.148C320.759 179.638 320.449 179.175 320.058 178.784C319.668 178.394 319.204 178.084 318.694 177.873C318.184 177.662 317.637 177.553 317.085 177.553C315.97 177.553 314.9 177.996 314.112 178.785C313.323 179.574 312.88 180.643 312.88 181.758C312.881 182.874 313.324 183.943 314.112 184.732C314.901 185.52 315.971 185.963 317.086 185.963Z" fill="#436FFF"/>
    <path d="M326.141 143.92V177.815" stroke="#436FFF" stroke-width="0.97" stroke-linecap="round" stroke-linejoin="round"/>
    <path d="M326.141 185.963C327.256 185.963 328.326 185.52 329.114 184.731C329.903 183.943 330.346 182.873 330.346 181.758C330.346 180.643 329.903 179.573 329.114 178.785C328.326 177.996 327.256 177.553 326.141 177.553C325.026 177.553 323.956 177.996 323.168 178.785C322.379 179.573 321.936 180.643 321.936 181.758C321.936 182.873 322.379 183.943 323.168 184.731C323.956 185.52 325.026 185.963 326.141 185.963Z" fill="#436FFF"/>
    </g>
    <g id="arrowDown">
    <path d="M1 0.999999L7.21905 6.33061C7.66844 6.7158 8.33156 6.7158 8.78095 6.33061L15 1" stroke="#ACADB9" stroke-width="1.5" stroke-linecap="round"/>
    </g>
    <g id="arrowUp">
    <path d="M15 7L8.78095 1.66938C8.33156 1.2842 7.66844 1.2842 7.21905 1.66938L1 7" stroke="#9854F6" stroke-width="1.5" stroke-linecap="round"/>
    </g>
</svg>